<svg xmlns="http://www.w3.org/2000/svg" width="256" height="256"><path fill-opacity=".016" d="M0 128.004v128.004l128.25-.254 128.25-.254.254-127.75L257.008 0H0v128.004m.485.496c0 70.4.119 99.053.265 63.672.146-35.38.146-92.98 0-128C.604 29.153.485 58.1.485 128.5" fill="#1976D2" fill-rule="evenodd"/><path fill-opacity=".016" d="M118.5 1.929a517.27 517.27 0 0 1-6.75 3.929L104.5 10l-7 4-7 4-7 4-7 4-7 4-7 4-7 4-7 4-7 4c-1.925 1.1-5.185 2.954-7.245 4.121-10.364 5.868-13.449 8.786-18.138 17.159C14.029 71.009 14 71.849 14 129.03c0 31.884.366 57.97.813 57.97.448 0 1.452 1.627 2.233 3.616 1.585 4.04 8.612 10.791 14.55 13.98C36.267 207.104 40.61 209.594 48 214a723.954 723.954 0 0 0 8.75 5.14l6.5 3.72A731.854 731.854 0 0 1 72 228a723.954 723.954 0 0 0 8.75 5.14c7.732 4.426 10.469 5.983 14 7.967 2.063 1.158 4.2 2.46 4.75 2.893.55.433 2.688 1.735 4.75 2.893a934.583 934.583 0 0 1 7.5 4.27c8.635 4.982 9.014 5.073 19.593 4.681 8.571-.317 10.692-.733 13.329-2.611 1.725-1.228 3.448-2.233 3.828-2.233.38 0 1.886-.847 3.346-1.883 1.46-1.036 4.342-2.836 6.404-4 2.063-1.164 5.325-3.017 7.25-4.117 1.925-1.1 5.187-2.948 7.25-4.107 2.063-1.158 4.2-2.46 4.75-2.893.55-.433 2.688-1.735 4.75-2.893 2.063-1.159 5.325-3.007 7.25-4.107 1.925-1.1 5.187-2.948 7.25-4.107 2.063-1.158 4.2-2.46 4.75-2.893.55-.433 2.688-1.735 4.75-2.893 2.063-1.159 5.325-3.007 7.25-4.107 1.925-1.1 5.152-2.936 7.172-4.079 8.583-4.862 15.127-10.012 17.881-14.075l2.947-4.346.3-58.5c.164-32.175.025-60.405-.309-62.734-.715-4.975-7.812-13.454-14.115-16.862-5.906-3.194-10.457-5.824-17.845-10.312-3.704-2.251-6.957-4.092-7.229-4.092-.271 0-1.688-.847-3.148-1.883-1.46-1.036-4.341-2.836-6.404-4A1930.923 1930.923 0 0 1 185.5 28c-1.925-1.1-5.187-2.948-7.25-4.107-2.062-1.158-4.2-2.46-4.75-2.893-.55-.433-2.687-1.735-4.75-2.893-8.726-4.902-11.01-6.231-13.404-7.8-3.983-2.61-8.528-5.149-12.596-7.038-2.062-.957-3.75-2.085-3.75-2.505 0-.42-3.937-.732-8.75-.693-6.521.053-9.514.526-11.75 1.858M39.032 79.736c-.018 5.079.48 11.379 1.106 14 1.284 5.38 6.267 16.208 8.73 18.972.898 1.007 3.397 3.847 5.555 6.312 2.158 2.464 7.22 8 11.25 12.301 7.22 7.708 7.921 8.968 6.72 12.097-1.08 2.815-3.488 1.715-12.27-5.604-13.063-10.885-18.798-16.691-23.281-23.564-2.242-3.437-4.221-6.25-4.397-6.25-.548 0 .671 7.351 1.741 10.5 3.935 11.575 8.987 17.558 22.452 26.593C64.042 150.06 67 152.618 67 154.054c0 1.105-.694 2.275-1.543 2.601-1.963.753-16.402-6.501-23.237-11.673-5.569-4.216-6.592-3.753-3.014 1.364 3.495 4.998 8.397 9.116 12.505 10.505 2.084.705 4.689 1.661 5.789 2.124 1.1.464 2.788 1.095 3.75 1.403 1.831.585 2.486 4.622.75 4.622-.55 0-1 .613-1 1.362 0 .749-1.8 4.861-4 9.138s-4 7.939-4 8.138c0 .199 7.589.362 16.864.362h16.865l5.003-9.75a1616.929 1616.929 0 0 1 8.636-16.583c1.998-3.758 3.632-7.423 3.632-8.143 0-1.547 2.292-2.621 3.591-1.681.5.361 1.514 1.731 2.253 3.044.739 1.313 2.177 3.87 3.195 5.683 1.018 1.813 3.379 5.688 5.247 8.613 1.867 2.924 5.196 8.149 7.396 11.61 4.351 6.843 4.343 6.843 8.211-.043 1.159-2.062 3.007-5.325 4.107-7.25 1.1-1.925 2.953-5.187 4.117-7.25 1.164-2.062 2.868-4.875 3.786-6.25.918-1.375 2.291-3.738 3.052-5.25.761-1.512 1.87-2.75 2.465-2.75.595 0 3.042 4.162 5.437 9.25a7060.028 7060.028 0 0 0 8.5 17.971l4.143 8.72 17.809.03c9.795.016 17.645-.309 17.445-.721-.2-.412-1.352-2.887-2.559-5.5a905.241 905.241 0 0 0-4.323-9.194c-1.171-2.444-1.895-5.054-1.609-5.8.286-.745 3.641-2.579 7.456-4.076 6.33-2.484 14.249-8.194 14.303-10.315.012-.476.902-1.99 1.978-3.365 3.318-4.242 2.214-4.358-2.444-.258-5.059 4.453-19.928 12.279-23.306 12.266-1.669-.006-2.246-.589-2.234-2.258.012-1.731 2.146-3.634 9.25-8.25 9.563-6.213 18.734-14.569 18.734-17.067 0-.788.45-1.433 1-1.433s1-.873 1-1.941.396-2.186.881-2.485c1.531-.946 4.299-14.574 2.96-14.574-.462 0-.841.481-.841 1.07 0 3.366-13.117 18.296-21.5 24.472-2.2 1.621-4.225 3.189-4.5 3.486-.275.297-2.632 2.262-5.239 4.367-5.347 4.319-7.761 4.229-7.761-.288 0-2.375 1.916-4.96 9.75-13.154 19.861-20.774 24.307-29.816 24.198-49.217l-.051-9.236-1.545 4c-4.004 10.365-12.888 26.038-18.912 33.364-6.529 7.94-15.767 19.877-16.163 20.886-.776 1.975-2.84 1.46-4.003-1-1.071-2.263-4.396-9.556-9.006-19.75-3.937-8.707-8.333-18.168-10.382-22.345-1.037-2.114-1.886-4.476-1.886-5.25 0-.773-.675-1.405-1.5-1.405s-1.5.481-1.5 1.07c0 .588-1.35 3.032-3 5.43-1.65 2.398-3 4.648-3 5 0 .352-1.35 2.602-3 5s-3 4.648-3 5c0 .352-1.35 2.602-3 5s-3 4.587-3 4.864c0 1.38-6.448 10.636-7.409 10.636-1.326 0-1.712-.587-9.708-14.75-1.164-2.062-2.964-4.944-4-6.404S114 96.88 114 96.5c0-.38-.847-1.886-1.882-3.346-2.789-3.934-7.124-11.404-7.779-13.404-.926-2.83-1.681-2.104-4.684 4.5-1.563 3.438-4.553 9.85-6.644 14.25l-7.906 16.652c-2.258 4.759-4.115 9.034-4.127 9.5-.012.467-.837 1.907-1.833 3.202l-1.81 2.353-4.212-5.353c-2.317-2.945-4.803-6.072-5.525-6.949-9.436-11.466-18.129-24.169-21.493-31.405-1.278-2.75-2.725-5.781-3.214-6.736-.49-.955-.891-2.557-.891-3.559 0-1.003-.661-2.696-1.468-3.764-1.326-1.753-1.471-1.044-1.5 7.295" fill="#1976D2" fill-rule="evenodd"/><path fill-opacity=".093" d="M122.833.75c-.183.413-3.933 2.597-8.333 4.855-13.189 6.767-86.729 49.258-90.471 52.272-1.909 1.538-4.946 5.637-6.75 9.11L14 73.3v109.528l3.038 5.935c1.671 3.264 4.258 7.1 5.75 8.524 2.823 2.695 86.947 52.213 95.712 56.34 5.494 2.586 15.135 3.214 20.185 1.314 5.961-2.243 92.645-53.471 95.775-56.601 1.816-1.816 4.255-5.33 5.421-7.81 2.082-4.43 2.119-5.497 2.097-61.769-.021-55.443-.087-57.404-2.059-61.761-3.902-8.62-1.482-6.972-63.419-43.209-19.25-11.262-36.532-21.223-38.404-22.134-3.435-1.673-14.627-2.338-15.263-.907M38.392 71.576c-1.21 4.82.271 22.602 2.331 27.977 2.882 7.524 8.82 15.643 20.661 28.251 10.276 10.942 11.846 13.566 9.512 15.9-2.335 2.335-28.692-21.452-33.978-30.665-4.517-7.87-6.27-8.619-5.348-2.281 2.256 15.491 8.858 24.337 27.796 37.242 6.311 4.301 8.643 8 5.043 8-3.005 0-19.433-9.216-24.419-13.699-6.049-5.438-6.431-3.841-1.069 4.456 4.148 6.417 8.954 9.959 17.438 12.85 2.551.869 4.863 1.944 5.138 2.388.274.444-1.738 5.596-4.471 11.448-3.516 7.531-4.6 10.783-3.709 11.125.693.266 8.668.359 17.721.208L87.5 184.5l9-17.687c4.95-9.728 9.302-17.98 9.67-18.337.369-.357 1.316.402 2.105 1.687C122.639 173.555 129.345 184 130 184c.442 0 1.636-1.524 2.652-3.387 7.907-14.493 17.989-31.573 18.646-31.591.72-.02 7.187 12.986 14.783 29.728l2.835 6.25h18.542c10.198 0 18.542-.206 18.542-.459 0-.252-2.234-5.231-4.965-11.065l-4.966-10.607 3.716-1.497c12.877-5.19 17.284-8.677 21.578-17.072 2.553-4.991 1.939-5.98-1.613-2.601-6.325 6.016-24.675 16.083-26.858 14.735-2.264-1.4-.105-3.594 10.174-10.343 8.514-5.59 12.071-8.629 15.418-13.177 4.183-5.681 7.653-14.248 8.979-22.164.747-4.465-.766-4.999-2.834-1-4.01 7.753-11.28 15.695-23.065 25.199-6.925 5.584-13.035 9.878-13.577 9.543-2.892-1.787-.62-5.723 9.457-16.386 19.029-20.135 22.721-27.401 22.924-45.106.073-6.325-.284-11.642-.792-11.815-.508-.174-1.913 2.314-3.121 5.528-5.006 13.315-10.52 22.111-25.727 41.037C182.387 128.131 180 130.436 180 128.113c0-1.082-22-49.278-23.024-50.439-.401-.455-6.69 9.142-13.976 21.326-7.286 12.184-13.565 21.781-13.954 21.326-.721-.843-11.33-18.805-20.429-34.587-2.778-4.819-5.419-8.638-5.869-8.488-.45.15-6.149 11.655-12.663 25.567s-12.167 25.305-12.562 25.317c-.83.026-7.666-8.34-18.498-22.635-7.718-10.186-13.537-20.811-16.574-30.265-2.006-6.246-3.151-7.278-4.059-3.659" fill="#1976D2" fill-rule="evenodd"/><path fill-opacity=".111" d="M126.211 1.538c-.71.804-2.383 1.462-3.72 1.462-2.408 0-4.035.781-14.285 6.86-2.912 1.727-5.531 3.14-5.82 3.14-.289 0-2.407 1.251-4.706 2.781-2.299 1.529-5.53 3.428-7.18 4.219-1.65.791-4.8 2.591-7 4-2.2 1.409-5.35 3.209-7 4-1.65.791-4.881 2.69-7.18 4.219C67.021 33.749 64.903 35 64.614 35c-.289 0-2.908 1.413-5.82 3.14a820.87 820.87 0 0 1-8.544 5 6311.966 6311.966 0 0 0-7 4.012 693.22 693.22 0 0 1-9.429 5.263C23.122 58.278 18.43 63.67 16.561 72.25c-.33 1.512-1.041 2.75-1.58 2.75-.629 0-.981 18.871-.981 52.571 0 45.397.205 52.777 1.5 54.072.825.825 1.5 2.441 1.5 3.591 0 4.008 4.948 10.656 10.979 14.752 3.251 2.208 6.204 4.014 6.562 4.014.358 0 1.845.847 3.305 1.883 1.46 1.036 4.342 2.836 6.404 4 2.063 1.164 5.325 3.017 7.25 4.117 1.925 1.1 5.188 2.948 7.25 4.107 2.063 1.158 4.2 2.46 4.75 2.893.55.433 2.688 1.735 4.75 2.893 2.062 1.159 5.325 3.007 7.25 4.107 1.925 1.1 5.188 2.948 7.25 4.107 2.063 1.158 4.2 2.46 4.75 2.893.55.433 2.688 1.735 4.75 2.893 2.062 1.159 5.325 3.007 7.25 4.107 1.925 1.1 5.188 2.948 7.25 4.107 2.063 1.158 4.2 2.46 4.75 2.893 2.467 1.941 8.713 5 10.209 5 .907 0 3.117.531 4.911 1.18 2.538.917 4.219.9 7.571-.077 5.566-1.622 12.231-4.787 17.489-8.306 2.299-1.538 4.445-2.797 4.768-2.797.324 0 3.551-1.8 7.172-4 3.622-2.2 6.806-4 7.078-4 .271 0 1.688-.847 3.148-1.883 1.46-1.036 4.342-2.836 6.404-4 2.063-1.164 5.325-3.017 7.25-4.117 1.925-1.1 5.187-2.948 7.25-4.107 2.063-1.158 4.2-2.46 4.75-2.893.55-.433 2.688-1.735 4.75-2.893 4.618-2.595 9.535-5.402 21.25-12.134 5.42-3.114 11.345-8.828 12.933-12.473 3.55-8.145 3.663-10.336 3.305-64-.342-51.27-.58-56.112-3.021-61.5-1.464-3.231-8.495-10.085-12.273-11.964-1.619-.805-4.069-2.215-5.444-3.133-1.375-.918-4.187-2.622-6.25-3.786A1930.923 1930.923 0 0 1 207.5 43c-1.925-1.1-5.187-2.953-7.25-4.117-2.062-1.164-4.944-2.964-6.404-4S190.88 33 190.5 33c-.38 0-1.886-.847-3.346-1.883-1.46-1.036-4.341-2.836-6.404-4A1930.923 1930.923 0 0 1 173.5 23c-1.925-1.1-5.187-2.948-7.25-4.107-2.062-1.158-4.2-2.46-4.75-2.893-.55-.433-2.626-1.693-4.613-2.799C149.655 9.172 148.491 8.491 148 8c-1.291-1.291-9.379-5-10.903-5-.943 0-2.588-.661-3.656-1.468-2.474-1.871-5.577-1.869-7.23.006M38.552 68.25c-1.026 3.333-1.377 15.981-.609 21.992 1.588 12.434 7.696 22.215 25.219 40.386 7.086 7.348 9.057 10.82 7.197 12.68-.544.544-6.188-3.645-12.542-9.308-.925-.825-4.103-3.517-7.062-5.982-6.123-5.103-11.556-11.656-14.764-17.81-2.508-4.812-3.736-5.863-5.173-4.426-1.428 1.428.825 11.315 4.265 18.718 4.013 8.638 8.699 13.57 20.562 21.645 7.64 5.201 10.179 7.431 9.374 8.236-1.604 1.604-18.996-7.51-24.809-13.002-2.55-2.408-4.99-4.379-5.423-4.379-2.818 0 2.237 9.548 8.327 15.728C46.742 156.409 55.597 161 59.069 161c2.488 0 1.677 3.498-3.01 12.979C53.276 179.607 51 184.613 51 185.105c0 1.472 35.568 1.129 36.755-.355.55-.687 4.93-9.012 9.733-18.5 4.803-9.488 8.886-17.25 9.074-17.25.188 0 1.874 2.588 3.747 5.75 1.872 3.162 5.793 9.575 8.713 14.25 2.92 4.675 6.247 10.184 7.394 12.242 1.146 2.058 2.625 3.745 3.286 3.75.661.004 5.611-7.847 11-17.449 5.389-9.601 10.158-17.476 10.599-17.5.441-.023 1.422 1.442 2.18 3.258.759 1.815 4.534 9.915 8.39 18L168.882 186h19.059c10.483 0 19.059-.37 19.059-.823 0-.834-4.405-10.438-8.069-17.59-1.102-2.153-1.65-4.216-1.218-4.585.433-.369 3.037-1.488 5.787-2.485 8.099-2.939 12.434-6.412 17.078-13.684 2.48-3.882 4.12-8.833 2.927-8.833-.391 0-2.91 1.977-5.598 4.393C213.429 146.42 196.661 156 194.091 156c-3.072 0-.139-3.102 7.916-8.373 11.113-7.271 17.355-13.42 21.045-20.731 2.983-5.909 6.36-18.42 5.395-19.982-1.113-1.801-3.269-.864-4.225 1.836-1.931 5.453-10.307 15.275-19.424 22.777-5.114 4.207-10.582 8.735-12.151 10.062-3.107 2.626-4.206 2.933-5.134 1.432-1.049-1.697 1.518-5.254 10.227-14.173 15.686-16.065 21.853-26.407 23.348-39.158.993-8.471.11-21.923-1.406-21.417-.57.19-2.074 3.244-3.343 6.786-4.609 12.87-11.107 23.463-25.024 40.796-4.573 5.695-8.315 10.758-8.315 11.25 0 1.973-2.823.738-3.379-1.478-.328-1.306-2.352-6.143-4.498-10.75-6.878-14.763-10.736-23.216-13.633-29.877-1.555-3.575-3.382-7.114-4.06-7.866-1.457-1.614-.091-3.587-15.488 22.366-6.199 10.45-11.594 19.374-11.988 19.831-.394.457-2.045-1.568-3.669-4.5s-5.348-9.381-8.276-14.331a1808.67 1808.67 0 0 1-9.773-16.75c-4.587-7.99-6.585-9.398-7.805-5.5-.775 2.473-3.542 8.587-11.432 25.25-6.113 12.911-9.428 20.223-10.428 23-.819 2.276-.54 2.573-15.141-16.159-11.882-15.244-18.426-27.18-21.434-39.091-1.043-4.129-2.662-5.539-3.444-3" fill="#1976D2" fill-rule="evenodd"/></svg>